HIERARCHY
ROOT Hips
{
	OFFSET -3.958830 18.904000 13.208200
	CHANNELS 6 Xposition Yposition Zposition Zrotation Yrotation Xrotation 
	JOINT LHipJoint
	{
		OFFSET 0.000000 0.000000 0.000000
		CHANNELS 3 Zrotation Yrotation Xrotation
		JOINT LeftUpLeg
		{
			OFFSET 1.800000 -1.400000 0.085000
			CHANNELS 3 Zrotation Yrotation Xrotation
			JOINT LeftLeg
			{
				OFFSET 2.215000 -6.000000 0.000000
				CHANNELS 3 Zrotation Yrotation Xrotation
				JOINT LeftFoot
				{
					OFFSET 2.500000 -6.900000 0.000000
					CHANNELS 3 Zrotation Yrotation Xrotation
					JOINT LeftToeBase
					{
						OFFSET 0.200000 -0.500000 1.950000
						CHANNELS 3 Zrotation Yrotation Xrotation
						End Site
						{
							OFFSET 0.000000 0.000000 0.000000
						}
					}
				}
			}
		}
	}
	JOINT RHipJoint
	{
		OFFSET 0.000000 0.000000 0.000000
		CHANNELS 3 Zrotation Yrotation Xrotation
		JOINT RightUpLeg
		{
			OFFSET -1.800000 -1.400000 0.085000
			CHANNELS 3 Zrotation Yrotation Xrotation
			JOINT RightLeg
			{
				OFFSET -2.215000 -6.000000 0.000000
				CHANNELS 3 Zrotation Yrotation Xrotation
				JOINT RightFoot
				{
					OFFSET -2.500000 -6.900000 0.000000
					CHANNELS 3 Zrotation Yrotation Xrotation
					JOINT RightToeBase
					{
						OFFSET -0.200000 -0.500000 1.950000
						CHANNELS 3 Zrotation Yrotation Xrotation
						End Site
						{
							OFFSET 0.000000 0.000000 0.000000
						}
					}
				}
			}
		}
	}
	JOINT LowerBack
	{
		OFFSET 0.000000 0.000000 0.000000
		CHANNELS 3 Zrotation Yrotation Xrotation
		JOINT Spine
		{
			OFFSET -0.087000 1.940000 -0.288900
			CHANNELS 3 Zrotation Yrotation Xrotation
			JOINT Spine1
			{
				OFFSET 0.000000 1.950000 0.060000
				CHANNELS 3 Zrotation Yrotation Xrotation
				JOINT Neck
				{
					OFFSET 0.000000 0.000000 0.000000
					CHANNELS 3 Zrotation Yrotation Xrotation
					JOINT Neck1
					{
						OFFSET 0.000000 1.600000 0.340000
						CHANNELS 3 Zrotation Yrotation Xrotation
						JOINT Head
						{
							OFFSET 0.000000 1.667000 -0.240000
							CHANNELS 3 Zrotation Yrotation Xrotation
							End Site
							{
								OFFSET 0.000000 0.000000 0.000000
							}
						}
					}
				}
				JOINT LeftShoulder
				{
					OFFSET 0.000000 0.000000 0.000000
					CHANNELS 3 Zrotation Yrotation Xrotation
					JOINT LeftArm
					{
						OFFSET 2.700000 1.550000 -0.730000
						CHANNELS 3 Zrotation Yrotation Xrotation
						JOINT LeftForeArm
						{
							OFFSET 5.450000 0.000000 0.000000
							CHANNELS 3 Zrotation Yrotation Xrotation
							JOINT LeftHand
							{
								OFFSET 3.450000 0.000000 0.000000
								CHANNELS 3 Zrotation Yrotation Xrotation
								JOINT LeftHandIndex1
								{
									OFFSET 0.750000 0.000000 0.000000
									CHANNELS 3 Zrotation Yrotation Xrotation
									End Site
									{
										OFFSET 0.000000 0.000000 0.000000
									}
								}
							}
						}
					}
				}
				JOINT RightShoulder
				{
					OFFSET 0.000000 0.000000 0.000000
					CHANNELS 3 Zrotation Yrotation Xrotation
					JOINT RightArm
					{
						OFFSET -2.700000 1.550000 -0.730000
						CHANNELS 3 Zrotation Yrotation Xrotation
						JOINT RightForeArm
						{
							OFFSET -5.450000 0.000000 0.000000
							CHANNELS 3 Zrotation Yrotation Xrotation
							JOINT RightHand
							{
								OFFSET -3.450000 0.000000 0.000000
								CHANNELS 3 Zrotation Yrotation Xrotation
								JOINT RightHandIndex1
								{
									OFFSET -0.750000 0.000000 0.000000
									CHANNELS 3 Zrotation Yrotation Xrotation
									End Site
									{
										OFFSET 0.000000 0.000000 0.000000
									}
								}
							}
						}
					}
				}
			}
		}
	}
}
MOTION
Frames: 8
Frame Time: 0.016667
-17.896070 16.737220 -5.671970 -0.679566 56.071210 5.619117 -15.367831 11.443323 4.401319 5.009753 -3.947729 -38.342703 -7.666217 3.443448 4.404671 -0.091371 2.051763 3.688762 0.038260 -0.051550 0.149900 17.987196 -11.402524 2.985110 -9.339823 0.343355 -2.213795 11.952463 -6.020514 7.737396 -0.420863 -4.419742 2.808868 -0.154570 -0.139050 0.172090 -4.189933 1.369573 -8.444126 14.713764 7.989043 20.955742 -3.498015 12.619622 -3.652976 4.834417 9.417119 -14.317882 18.608349 -19.334414 35.900142 -2.325600 -12.484100 0.361190 -12.309641 -1.563025 2.993804 -30.079919 16.157502 -6.487135 -5.015726 14.437295 -1.469228 -4.057676 2.580569 0.107430 -0.066700 0.177860 -0.005650 0.022885 2.813750 11.161691 16.847167 -9.634599 -2.468386 3.038502 -14.584602 -0.647985 3.132129 -1.136698 0.133120 -0.141780 -0.079870 0.016910 
-17.739230 16.888960 -5.671970 -3.381612 56.363067 4.288890 -15.379194 11.378329 4.132826 2.945936 -3.939418 -37.204123 -6.829430 3.365069 5.202656 -0.110479 1.877664 3.752562 0.050180 -0.033300 0.169730 18.015323 -11.243834 3.356451 -8.898893 0.046539 1.286645 10.705792 -4.752548 0.330063 -0.530837 -4.569811 2.778065 -0.144020 -0.165810 0.177730 -4.197105 1.503277 -8.481324 15.576556 8.804191 19.611616 -2.253431 13.316408 -3.957596 4.751069 9.771346 -15.290055 20.262995 -20.793628 34.171770 -3.272280 -13.179500 0.094040 -11.935322 -2.384201 3.626178 -29.326770 17.972342 -6.461680 -4.884629 16.016580 -1.478661 -4.082455 2.550126 0.099700 -0.072530 0.192090 -0.009430 -0.620335 4.349100 11.603580 14.164828 -6.693417 -1.907911 2.552937 -16.826435 -0.613078 3.176725 -1.137445 0.144160 -0.156240 -0.095340 0.016530 
-17.578410 17.013010 -5.680080 -5.550060 57.151114 2.994153 -15.348175 11.244597 3.802807 0.834815 -3.822499 -35.214397 -5.275023 3.057469 5.364780 -0.169651 1.664991 3.851568 0.063440 -0.012370 0.151400 18.091181 -11.170510 3.731788 -9.050623 0.307160 4.744897 8.611461 -3.821611 -5.635205 -0.670737 -4.934731 2.669279 -0.114510 -0.150150 0.166930 -4.527305 1.893750 -8.540607 17.582274 8.992062 17.523911 -1.639156 13.223237 -2.485153 4.538652 9.531540 -15.787327 20.297372 -21.833588 33.107254 -2.820740 -14.960780 -1.030420 -11.888171 -3.297723 4.229437 -28.075424 19.115456 -6.039683 -4.562633 17.507198 -1.470934 -4.112951 2.509687 0.097190 -0.076180 0.175160 -0.003530 -0.445184 5.642043 11.671218 10.968094 -2.111541 -0.732039 -3.046217 -10.289816 0.167127 3.118406 -1.158778 0.134850 -0.128610 -0.084810 0.026200 
-17.422180 17.104630 -5.685420 -7.431162 57.741427 1.856951 -15.306801 11.120941 3.606264 -0.284918 -3.503304 -32.275352 -3.962622 2.376646 1.578444 -0.175451 1.464444 3.951323 0.020340 -0.078300 0.114970 18.147670 -11.226646 3.924843 -9.408044 0.755249 6.688577 6.052632 -3.432556 -8.298409 -0.745002 -5.144460 2.602063 -0.160140 -0.147820 0.157290 -4.939622 2.362883 -8.655342 19.595831 8.910980 15.637939 -2.109203 13.054729 -1.658512 3.839730 9.018028 -16.858161 20.148260 -22.271352 34.247583 -1.751100 -16.699220 -0.325050 -9.077855 -3.833167 4.957624 -28.067063 20.366936 -6.380562 -3.511914 16.458912 -1.240928 -4.135156 2.463238 0.110820 -0.097720 0.158290 -0.025500 -2.185069 6.944553 12.284587 9.973418 1.260011 0.106857 -3.997412 -4.072639 0.187976 3.032917 -1.156997 0.131930 -0.136600 -0.049790 0.028280 
-17.251860 17.132810 -5.684530 -10.149900 56.582142 0.620002 -15.203046 10.621971 3.338815 0.110320 -2.953224 -31.715307 -2.066642 1.957418 -0.177707 -0.264298 1.429119 3.982351 0.014110 -0.090610 0.089520 18.311286 -11.431477 4.092492 -11.550692 1.935488 9.463760 5.505326 -3.510171 -9.599123 -0.834182 -5.718718 2.395647 -0.118170 -0.089690 0.176860 -5.624113 3.740283 -8.611958 22.065905 10.358899 12.567673 -2.940243 13.699912 0.872817 4.532897 8.806728 -17.323439 20.874320 -23.583232 28.983540 -2.507060 -17.810160 -1.676270 -4.538270 -1.821534 3.368235 -28.871649 19.310505 -6.657363 -2.942135 14.164357 -1.195363 -4.253406 2.352757 0.076520 -0.048430 0.095530 -0.039820 -8.486497 7.607657 13.980715 11.860629 5.774205 1.927599 -2.386255 2.260438 0.118666 2.804323 -1.270667 0.103710 -0.114220 0.001620 0.025140 
-17.101800 17.189910 -5.691980 -10.688743 55.579761 -0.193188 -15.151281 10.556348 3.161149 -0.240516 -2.672398 -29.692673 -0.713928 1.725939 -1.217400 -0.323970 1.451097 4.006941 0.051500 -0.035700 0.086150 18.355167 -11.702998 3.900568 -14.774367 2.606573 10.699177 5.066939 -4.262937 -6.196506 -0.823099 -6.024691 2.294746 -0.044460 -0.027110 0.181820 -5.939397 4.233718 -8.450543 23.014575 10.450304 10.698395 -2.064741 12.467557 5.325688 5.301779 8.339108 -17.641494 19.958745 -22.599508 28.225619 -3.523730 -16.925110 -2.211880 -4.367170 -4.387811 4.578001 -25.744380 19.366123 -6.005677 -5.620963 17.408280 -2.031501 -4.364505 2.305503 0.033090 0.002910 0.053200 -0.014730 -9.265273 9.884775 12.949057 7.528337 11.206912 2.376257 -6.267671 6.182869 -0.086590 2.740021 -1.382467 0.083460 -0.065760 0.008420 0.036420 
-16.979690 17.248440 -5.685140 -10.730835 55.403179 -0.493414 -15.135375 10.610749 3.098714 -0.216943 -2.555147 -28.684052 -0.793027 1.760232 -0.574314 -0.374916 1.480381 4.000837 0.087760 0.008440 0.083220 18.326076 -11.957148 3.703788 -17.475826 3.334840 11.718149 3.965268 -4.876566 -2.674806 -0.809574 -6.192821 2.230084 0.005300 -0.005970 0.172390 -6.044302 4.453168 -8.318620 23.170306 10.804787 10.047909 -1.085434 12.059801 7.130885 5.436599 7.906015 -17.641228 19.045243 -22.123200 28.496881 -2.790860 -17.152040 -3.791880 -4.068202 -5.906186 5.352269 -23.417106 18.800925 -5.420302 -6.526235 17.579634 -2.400027 -4.379516 2.286138 0.044230 0.001280 0.042650 0.001780 -9.327617 11.395480 11.641481 4.539698 14.927146 1.907247 -9.776990 6.930639 -0.454134 2.754063 -1.419235 0.065260 -0.025990 0.012700 0.038670 
-16.861220 17.275930 -5.667100 -10.409291 58.163952 -0.574516 -15.205907 10.724766 3.136988 -1.469187 -2.882666 -28.086615 -0.983039 1.832761 0.683774 -0.372662 1.422216 4.022853 0.082080 -0.008150 0.070220 18.218841 -12.010936 3.686250 -18.376505 3.817649 14.672525 3.298204 -5.267989 -1.294709 -0.867708 -6.437358 2.144763 -0.012120 -0.023920 0.150910 -5.965802 4.233426 -8.374653 22.964964 10.709444 9.762181 -0.468801 11.713791 7.519881 5.136384 6.899874 -18.423985 16.957554 -22.648262 30.502599 -2.095520 -19.003800 -4.593510 -2.302999 -6.789078 5.344821 -21.892722 16.321014 -5.045198 -6.952365 18.088464 -2.489998 -4.383862 2.253439 0.066990 -0.042990 0.048060 0.000850 -10.281360 13.756844 11.657794 1.376822 15.724336 1.224799 -11.216429 5.941476 -0.521290 2.831064 -1.389543 0.065280 -0.017570 0.016020 0.046940 
